<mxfile host="Electron" agent="Mozilla/5.0 (Windows NT 10.0; Win64; x64) AppleWebKit/537.36 (KHTML, like Gecko) draw.io/26.0.4 Chrome/128.0.6613.186 Electron/32.2.5 Safari/537.36" version="26.0.4">
  <diagram name="Page-1" id="Nf3vGlXQaYr-Yirx5v4W">
    <mxGraphModel dx="1900" dy="621" grid="1" gridSize="10" guides="1" tooltips="1" connect="1" arrows="1" fold="1" page="1" pageScale="1" pageWidth="850" pageHeight="1100" math="0" shadow="0">
      <root>
        <mxCell id="0" />
        <mxCell id="1" parent="0" />
        <mxCell id="igZtoClBBKHCVi2TM0o5-1" value="" style="shape=umlLifeline;perimeter=lifelinePerimeter;whiteSpace=wrap;html=1;container=1;dropTarget=0;collapsible=0;recursiveResize=0;outlineConnect=0;portConstraint=eastwest;newEdgeStyle={&quot;curved&quot;:0,&quot;rounded&quot;:0};participant=umlActor;" parent="1" vertex="1">
          <mxGeometry x="-20" y="40" width="20" height="320" as="geometry" />
        </mxCell>
        <mxCell id="eboknaeCsvfR5cCV1Scg-1" value="" style="html=1;points=[[0,0,0,0,5],[0,1,0,0,-5],[1,0,0,0,5],[1,1,0,0,-5]];perimeter=orthogonalPerimeter;outlineConnect=0;targetShapes=umlLifeline;portConstraint=eastwest;newEdgeStyle={&quot;curved&quot;:0,&quot;rounded&quot;:0};" vertex="1" parent="igZtoClBBKHCVi2TM0o5-1">
          <mxGeometry x="5" y="60" width="10" height="80" as="geometry" />
        </mxCell>
        <mxCell id="igZtoClBBKHCVi2TM0o5-3" value="Controller" style="shape=umlLifeline;perimeter=lifelinePerimeter;whiteSpace=wrap;html=1;container=1;dropTarget=0;collapsible=0;recursiveResize=0;outlineConnect=0;portConstraint=eastwest;newEdgeStyle={&quot;curved&quot;:0,&quot;rounded&quot;:0};" parent="1" vertex="1">
          <mxGeometry x="280" y="40" width="100" height="320" as="geometry" />
        </mxCell>
        <mxCell id="eboknaeCsvfR5cCV1Scg-4" value="" style="html=1;points=[[0,0,0,0,5],[0,1,0,0,-5],[1,0,0,0,5],[1,1,0,0,-5]];perimeter=orthogonalPerimeter;outlineConnect=0;targetShapes=umlLifeline;portConstraint=eastwest;newEdgeStyle={&quot;curved&quot;:0,&quot;rounded&quot;:0};" vertex="1" parent="igZtoClBBKHCVi2TM0o5-3">
          <mxGeometry x="45" y="110" width="10" height="80" as="geometry" />
        </mxCell>
        <mxCell id="igZtoClBBKHCVi2TM0o5-4" value="Giao diện" style="shape=umlLifeline;perimeter=lifelinePerimeter;whiteSpace=wrap;html=1;container=1;dropTarget=0;collapsible=0;recursiveResize=0;outlineConnect=0;portConstraint=eastwest;newEdgeStyle={&quot;curved&quot;:0,&quot;rounded&quot;:0};" parent="1" vertex="1">
          <mxGeometry x="120" y="40" width="100" height="320" as="geometry" />
        </mxCell>
        <mxCell id="cznNkQGUgHskFZyse5V6-4" value="hiển thị danh&lt;div&gt;&amp;nbsp;sách&amp;nbsp;&lt;span style=&quot;background-color: light-dark(#ffffff, var(--ge-dark-color, #121212)); color: light-dark(rgb(0, 0, 0), rgb(255, 255, 255));&quot;&gt;tìm kiếm&lt;/span&gt;&lt;/div&gt;" style="html=1;align=left;spacingLeft=2;endArrow=block;rounded=0;edgeStyle=orthogonalEdgeStyle;curved=0;rounded=0;" parent="igZtoClBBKHCVi2TM0o5-4" target="eboknaeCsvfR5cCV1Scg-3" edge="1" source="igZtoClBBKHCVi2TM0o5-4">
          <mxGeometry relative="1" as="geometry">
            <mxPoint x="55" y="200" as="sourcePoint" />
            <Array as="points">
              <mxPoint x="110" y="220" />
              <mxPoint x="110" y="270" />
            </Array>
            <mxPoint x="60" y="240" as="targetPoint" />
          </mxGeometry>
        </mxCell>
        <mxCell id="eboknaeCsvfR5cCV1Scg-2" value="" style="html=1;points=[[0,0,0,0,5],[0,1,0,0,-5],[1,0,0,0,5],[1,1,0,0,-5]];perimeter=orthogonalPerimeter;outlineConnect=0;targetShapes=umlLifeline;portConstraint=eastwest;newEdgeStyle={&quot;curved&quot;:0,&quot;rounded&quot;:0};" vertex="1" parent="igZtoClBBKHCVi2TM0o5-4">
          <mxGeometry x="45" y="70" width="10" height="230" as="geometry" />
        </mxCell>
        <mxCell id="eboknaeCsvfR5cCV1Scg-3" value="" style="html=1;points=[[0,0,0,0,5],[0,1,0,0,-5],[1,0,0,0,5],[1,1,0,0,-5]];perimeter=orthogonalPerimeter;outlineConnect=0;targetShapes=umlLifeline;portConstraint=eastwest;newEdgeStyle={&quot;curved&quot;:0,&quot;rounded&quot;:0};" vertex="1" parent="igZtoClBBKHCVi2TM0o5-4">
          <mxGeometry x="55" y="242" width="10" height="50" as="geometry" />
        </mxCell>
        <mxCell id="igZtoClBBKHCVi2TM0o5-6" value=":Sản phẩm" style="shape=umlLifeline;perimeter=lifelinePerimeter;whiteSpace=wrap;html=1;container=1;dropTarget=0;collapsible=0;recursiveResize=0;outlineConnect=0;portConstraint=eastwest;newEdgeStyle={&quot;curved&quot;:0,&quot;rounded&quot;:0};" parent="1" vertex="1">
          <mxGeometry x="426" y="40" width="100" height="320" as="geometry" />
        </mxCell>
        <mxCell id="eboknaeCsvfR5cCV1Scg-5" value="" style="html=1;points=[[0,0,0,0,5],[0,1,0,0,-5],[1,0,0,0,5],[1,1,0,0,-5]];perimeter=orthogonalPerimeter;outlineConnect=0;targetShapes=umlLifeline;portConstraint=eastwest;newEdgeStyle={&quot;curved&quot;:0,&quot;rounded&quot;:0};" vertex="1" parent="igZtoClBBKHCVi2TM0o5-6">
          <mxGeometry x="45" y="110" width="10" height="80" as="geometry" />
        </mxCell>
        <mxCell id="igZtoClBBKHCVi2TM0o5-8" value="khách hàng" style="text;html=1;align=center;verticalAlign=middle;resizable=0;points=[];autosize=1;strokeColor=none;fillColor=none;" parent="1" vertex="1">
          <mxGeometry x="-100" y="60" width="90" height="30" as="geometry" />
        </mxCell>
        <mxCell id="igZtoClBBKHCVi2TM0o5-10" value="nhập tên sản phẩm" style="html=1;verticalAlign=bottom;endArrow=block;curved=0;rounded=0;" parent="1" edge="1" target="igZtoClBBKHCVi2TM0o5-4" source="igZtoClBBKHCVi2TM0o5-1">
          <mxGeometry width="80" relative="1" as="geometry">
            <mxPoint x="-10.75" y="119" as="sourcePoint" />
            <mxPoint x="164.75" y="119" as="targetPoint" />
            <Array as="points">
              <mxPoint x="80" y="120" />
            </Array>
          </mxGeometry>
        </mxCell>
        <mxCell id="igZtoClBBKHCVi2TM0o5-11" value="Gửi yêu cầu" style="html=1;verticalAlign=bottom;endArrow=block;curved=0;rounded=0;" parent="1" edge="1" target="igZtoClBBKHCVi2TM0o5-3" source="igZtoClBBKHCVi2TM0o5-4">
          <mxGeometry width="80" relative="1" as="geometry">
            <mxPoint x="170" y="154" as="sourcePoint" />
            <mxPoint x="329.5" y="154" as="targetPoint" />
            <Array as="points">
              <mxPoint x="250" y="160" />
            </Array>
          </mxGeometry>
        </mxCell>
        <mxCell id="igZtoClBBKHCVi2TM0o5-12" value="tra cứu sản phẩm" style="html=1;verticalAlign=bottom;endArrow=block;curved=0;rounded=0;" parent="1" edge="1" target="igZtoClBBKHCVi2TM0o5-6" source="igZtoClBBKHCVi2TM0o5-3">
          <mxGeometry width="80" relative="1" as="geometry">
            <mxPoint x="330" y="161" as="sourcePoint" />
            <mxPoint x="474.5" y="161" as="targetPoint" />
            <Array as="points">
              <mxPoint x="410" y="170" />
            </Array>
          </mxGeometry>
        </mxCell>
        <mxCell id="igZtoClBBKHCVi2TM0o5-17" value="return" style="html=1;verticalAlign=bottom;endArrow=open;dashed=1;endSize=8;curved=0;rounded=0;" parent="1" edge="1" target="igZtoClBBKHCVi2TM0o5-3" source="igZtoClBBKHCVi2TM0o5-6">
          <mxGeometry relative="1" as="geometry">
            <mxPoint x="470" y="200" as="sourcePoint" />
            <mxPoint x="330" y="200" as="targetPoint" />
            <Array as="points">
              <mxPoint x="400" y="210" />
            </Array>
          </mxGeometry>
        </mxCell>
        <mxCell id="igZtoClBBKHCVi2TM0o5-18" value="return&lt;div&gt;danh sách sản phẩm&lt;/div&gt;" style="html=1;verticalAlign=bottom;endArrow=open;dashed=1;endSize=8;curved=0;rounded=0;" parent="1" edge="1" target="igZtoClBBKHCVi2TM0o5-4" source="igZtoClBBKHCVi2TM0o5-3">
          <mxGeometry relative="1" as="geometry">
            <mxPoint x="330" y="211" as="sourcePoint" />
            <mxPoint x="169.5" y="211" as="targetPoint" />
            <Array as="points">
              <mxPoint x="250" y="220" />
            </Array>
          </mxGeometry>
        </mxCell>
        <mxCell id="cznNkQGUgHskFZyse5V6-1" value="Nhấn nút tìm kiếm" style="endArrow=classic;html=1;rounded=0;" parent="1" edge="1" target="igZtoClBBKHCVi2TM0o5-4" source="igZtoClBBKHCVi2TM0o5-1">
          <mxGeometry x="0.0027" y="10" width="50" height="50" relative="1" as="geometry">
            <mxPoint x="-5" y="141" as="sourcePoint" />
            <mxPoint x="165" y="141" as="targetPoint" />
            <Array as="points">
              <mxPoint x="80" y="150" />
            </Array>
            <mxPoint as="offset" />
          </mxGeometry>
        </mxCell>
        <mxCell id="cznNkQGUgHskFZyse5V6-7" value="Database" style="shape=umlLifeline;perimeter=lifelinePerimeter;whiteSpace=wrap;html=1;container=1;dropTarget=0;collapsible=0;recursiveResize=0;outlineConnect=0;portConstraint=eastwest;newEdgeStyle={&quot;curved&quot;:0,&quot;rounded&quot;:0};" parent="1" vertex="1">
          <mxGeometry x="570" y="40" width="100" height="320" as="geometry" />
        </mxCell>
        <mxCell id="eboknaeCsvfR5cCV1Scg-6" value="" style="html=1;points=[[0,0,0,0,5],[0,1,0,0,-5],[1,0,0,0,5],[1,1,0,0,-5]];perimeter=orthogonalPerimeter;outlineConnect=0;targetShapes=umlLifeline;portConstraint=eastwest;newEdgeStyle={&quot;curved&quot;:0,&quot;rounded&quot;:0};" vertex="1" parent="cznNkQGUgHskFZyse5V6-7">
          <mxGeometry x="45" y="120" width="10" height="60" as="geometry" />
        </mxCell>
        <mxCell id="cznNkQGUgHskFZyse5V6-8" value="thực thi truy vấn" style="html=1;verticalAlign=bottom;endArrow=block;curved=0;rounded=0;" parent="1" edge="1" target="cznNkQGUgHskFZyse5V6-7" source="igZtoClBBKHCVi2TM0o5-6">
          <mxGeometry width="80" relative="1" as="geometry">
            <mxPoint x="479" y="170" as="sourcePoint" />
            <mxPoint x="618.5" y="170" as="targetPoint" />
            <Array as="points">
              <mxPoint x="550" y="180" />
            </Array>
          </mxGeometry>
        </mxCell>
        <mxCell id="cznNkQGUgHskFZyse5V6-9" value="return" style="html=1;verticalAlign=bottom;endArrow=open;dashed=1;endSize=8;curved=0;rounded=0;" parent="1" edge="1" target="igZtoClBBKHCVi2TM0o5-6" source="cznNkQGUgHskFZyse5V6-7">
          <mxGeometry relative="1" as="geometry">
            <mxPoint x="620" y="191" as="sourcePoint" />
            <mxPoint x="480" y="191" as="targetPoint" />
            <Array as="points">
              <mxPoint x="550" y="200" />
            </Array>
          </mxGeometry>
        </mxCell>
      </root>
    </mxGraphModel>
  </diagram>
</mxfile>
